<svg xmlns="http://www.w3.org/2000/svg"  viewBox="0 0 48 48" width="192px" height="192px"><linearGradient id="SVGID_1_" x1="36.038" x2="10.961" y1="20.271" y2="45.348" gradientUnits="userSpaceOnUse"><stop offset=".014" stop-color="#fe6d60"/><stop offset=".046" stop-color="#fe766a"/><stop offset=".208" stop-color="#fea097"/><stop offset=".37" stop-color="#ffc2bd"/><stop offset=".532" stop-color="#ffddda"/><stop offset=".692" stop-color="#fff0ee"/><stop offset=".849" stop-color="#fffbfb"/><stop offset="1" stop-color="#fff"/></linearGradient><path fill="url(#SVGID_1_)" d="M36.364,22.31H10.636c-2.284,0-4.136,1.852-4.136,4.136v12.727c0,2.284,1.852,4.136,4.136,4.136h25.727	c2.284,0,4.136-1.852,4.136-4.136V26.446C40.5,24.162,38.648,22.31,36.364,22.31z"/><path fill="none" stroke="#e02f24" stroke-linecap="round" stroke-linejoin="round" stroke-width="3" d="M33.66,42.5h2.84c2.209,0,4-1.791,4-4v-12c0-2.209-1.791-4-4-4H19.365"/><path fill="none" stroke="#e02f24" stroke-linecap="round" stroke-linejoin="round" stroke-width="3" d="M13.553,22.5H11.5c-2.209,0-4,1.791-4,4v12c0,2.209,1.791,4,4,4h15.851"/><path fill="#e02f24" d="M25.784,9.821c-0.224-0.7-0.576-1.216-1.06-1.545c-0.483-0.33-1.126-0.495-1.927-0.495	c-0.815,0-1.472,0.161-1.972,0.486c-0.502,0.323-0.87,0.839-1.106,1.545c-0.235,0.708-0.354,1.644-0.354,2.809v1.572	c0,1.153,0.103,2.078,0.31,2.773c0.206,0.695,0.554,1.208,1.043,1.537c0.49,0.33,1.165,0.495,2.025,0.497	c0.837,0,1.502-0.161,1.99-0.486s0.843-0.836,1.06-1.537c0.217-0.702,0.327-1.628,0.327-2.783v-1.573	C26.12,11.455,26.008,10.523,25.784,9.821z M23.663,15.077c0,0.802-0.069,1.378-0.203,1.731c-0.135,0.353-0.375,0.53-0.715,0.531	c-0.341,0-0.577-0.178-0.707-0.531c-0.131-0.353-0.195-0.931-0.195-1.731v-3.375c0-0.777,0.069-1.345,0.203-1.705	C22.18,9.64,22.413,9.46,22.743,9.46c0.341,0,0.582,0.178,0.716,0.537c0.136,0.358,0.203,0.927,0.203,1.705v3.375H23.663z"/><path fill="#e02f24" d="M14.682,14.018L12.011,4.38C11.958,4.189,12.102,4,12.3,4h1.623c0.236,0,0.439,0.159,0.488,0.39	c0.303,1.43,1.338,6.338,1.438,7.01h0.072c0.071-0.483,1.158-5.556,1.471-7.012C17.441,4.158,17.644,4,17.879,4h1.623	c0.199,0,0.343,0.19,0.289,0.381l-2.705,9.637v4.306c0,0.276-0.224,0.5-0.5,0.5h-1.404c-0.276,0-0.5-0.224-0.5-0.5L14.682,14.018z"/><path fill="#e02f24" d="M34,8.5v9.822c0,0.276-0.224,0.5-0.5,0.5h-0.984c-0.246,0-0.455-0.178-0.494-0.421l-0.145-0.904h-0.053	c-0.518,1.001-1.297,1.501-2.334,1.501c-0.719,0-1.25-0.236-1.592-0.706c-0.341-0.47-0.513-1.208-0.513-2.209V8.5	c0-0.276,0.224-0.5,0.5-0.5h1.44c0.276,0,0.5,0.224,0.5,0.5v7.443c0,0.484,0.053,0.826,0.16,1.033s0.283,0.309,0.532,0.309	c0.213,0,0.414-0.064,0.61-0.195c0.196-0.13,0.339-0.294,0.433-0.495V8.5c0-0.276,0.224-0.5,0.5-0.5h1.44C33.776,8,34,8.224,34,8.5z"/><path fill="#e02f24" d="M15.5,38.483h-1c-0.276,0-0.5-0.224-0.5-0.5V28h-1.5c-0.276,0-0.5-0.224-0.5-0.5v-1c0-0.276,0.224-0.5,0.5-0.5	h5c0.276,0,0.5,0.224,0.5,0.5v1c0,0.276-0.224,0.5-0.5,0.5H16v9.983C16,38.259,15.776,38.483,15.5,38.483z"/><path fill="#e02f24" d="M23,37.983c0,0.276-0.224,0.5-0.5,0.5h-0.632c-0.246,0-0.455-0.179-0.494-0.421l-0.105-0.658h-0.044	c-0.422,0.817-1.055,1.224-1.899,1.224c-0.586,0-1.016-0.191-1.295-0.576c-0.279-0.383-0.418-0.984-0.418-1.798v-6.09	c0-0.276,0.224-0.5,0.5-0.5h0.988c0.276,0,0.5,0.224,0.5,0.5v5.975c0,0.392,0.044,0.675,0.13,0.841	c0.087,0.169,0.229,0.252,0.433,0.252c0.172,0,0.338-0.053,0.496-0.16c0.16-0.106,0.274-0.241,0.353-0.404v-6.507	c0-0.276,0.224-0.5,0.5-0.5H22.5c0.276,0,0.5,0.224,0.5,0.5V37.983z"/><path fill="#e02f24" d="M29.64,33.391c0-0.987-0.06-1.759-0.179-2.317c-0.119-0.556-0.315-0.96-0.582-1.209s-0.636-0.374-1.106-0.374	c-0.365,0-0.705,0.103-1.022,0.309c-0.316,0.207-0.562,0.476-0.734,0.812H26V26.5c0-0.276-0.224-0.5-0.5-0.5h-1	c-0.276,0-0.5,0.224-0.5,0.5v11.483c0,0.276,0.224,0.5,0.5,0.5h0.833c0.231,0,0.432-0.158,0.486-0.383l0.108-0.45h0.044	c0.154,0.298,0.383,0.533,0.69,0.705c0.307,0.172,0.648,0.259,1.022,0.259c0.671,0,1.165-0.309,1.482-0.928s0.476-1.586,0.476-2.9	H29.64V33.391z M27.641,34.672c0,0.642-0.027,1.147-0.08,1.51c-0.051,0.365-0.14,0.624-0.265,0.778s-0.292,0.229-0.503,0.229	c-0.164,0-0.315-0.041-0.454-0.116C26.2,36.996,26.087,36.882,26,36.728v-5.007c0.066-0.238,0.184-0.436,0.347-0.589	c0.163-0.154,0.341-0.229,0.532-0.229c0.203,0,0.359,0.08,0.469,0.237c0.109,0.157,0.187,0.425,0.229,0.799	c0.044,0.375,0.065,0.907,0.065,1.598L27.641,34.672L27.641,34.672z"/><path fill="#e02f24" d="M35.282,34.736c0.276,0,0.5-0.224,0.5-0.5v-1.013c0-0.93-0.075-1.659-0.223-2.187	c-0.149-0.526-0.407-0.915-0.77-1.165c-0.365-0.249-0.888-0.374-1.568-0.374c-0.987,0-1.685,0.303-2.092,0.913	s-0.612,1.577-0.612,2.9v1.54c0,1.286,0.194,2.235,0.589,2.849s1.081,0.921,2.059,0.921c0.815,0,1.445-0.2,1.892-0.604	c0.412-0.37,0.634-0.919,0.665-1.643c0-0.276-0.225-0.5-0.501-0.5c-0.155,0-0.605,0-0.761,0c-0.276,0-0.504,0.224-0.504,0.5	c0,0.187-0.036,0.419-0.101,0.549c-0.12,0.237-0.351,0.346-0.648,0.346c-0.22,0-0.383-0.063-0.488-0.193	c-0.105-0.128-0.173-0.336-0.208-0.618s-0.051-0.707-0.051-1.274v-0.446L35.282,34.736L35.282,34.736z M32.457,33.555v-0.633	c0-0.574,0.017-1.005,0.051-1.287c0.032-0.283,0.099-0.487,0.2-0.612c0.101-0.124,0.258-0.187,0.469-0.187	c0.213,0,0.368,0.06,0.469,0.179c0.101,0.121,0.169,0.325,0.206,0.619c0.038,0.292,0.057,0.72,0.057,1.287v0.633L32.457,33.555	L32.457,33.555z"/></svg>