<?xml version="1.0" encoding="iso-8859-1"?>
<!-- Generator: Adobe Illustrator 26.1.0, SVG Export Plug-In . SVG Version: 6.00 Build 0)  -->
<svg version="1.1" id="Layer_1" xmlns="http://www.w3.org/2000/svg" xmlns:xlink="http://www.w3.org/1999/xlink" x="0px" y="0px"
	 viewBox="0 0 48 48" style="enable-background:new 0 0 48 48;" xml:space="preserve">
<linearGradient id="SVGID_00000061437090050714751030000007879500629489220285_" gradientUnits="userSpaceOnUse" x1="4.3591" y1="8.4074" x2="43.4229" y2="32.535">
	<stop  offset="0" style="stop-color:#E80023"/>
	<stop  offset="1" style="stop-color:#8D0116"/>
</linearGradient>
<path style="fill:url(#SVGID_00000061437090050714751030000007879500629489220285_);" d="M41.004,16.194
	c-2.619-7.641-9.135-13.077-16.76-13.077S10.103,8.553,7.484,16.194c-2.398,0.368-4.24,2.422-4.24,4.923v3c0,2.761,2.239,5,5,5
	h3.858c1.863,5.841,6.589,10,12.142,10s10.279-4.159,12.142-10h2.086c-0.897,3.132-2.552,5.932-4.764,8.047
	c-0.154-0.018-0.306-0.047-0.465-0.047c-2.209,0-4,1.791-4,4c0,2.209,1.791,4,4,4s4-1.791,4-4c0-0.903-0.311-1.727-0.815-2.397
	c2.546-2.651,4.347-6.052,5.219-9.828c2.073-0.61,3.596-2.505,3.596-4.776v-3C45.244,18.616,43.402,16.562,41.004,16.194z
	 M35.618,16.117c-2.217-4.769-6.477-8-11.374-8s-9.157,3.231-11.374,8h-2.158c2.413-5.902,7.563-10,13.532-10
	s11.119,4.098,13.532,10H35.618z"/>
<path style="opacity:0.05;" d="M31.352,22.097l-12.249-5.828c-0.272-0.13-0.561-0.195-0.859-0.195c-1.103,0-2,0.898-2,2.001v12.15
	c0,1.104,0.897,2.001,2.001,2.001c0.32,0,0.629-0.075,0.917-0.224l12.249-6.322c0.68-0.351,1.095-1.044,1.083-1.81
	C32.48,23.106,32.043,22.426,31.352,22.097z"/>
<path style="opacity:0.07;" d="M31.138,22.549l-12.249-5.828c-0.205-0.097-0.421-0.147-0.644-0.147c-0.827,0-1.5,0.673-1.5,1.501
	v12.15c0,0.828,0.673,1.501,1.501,1.501c0.24,0,0.471-0.057,0.687-0.168l12.249-6.322c0.51-0.263,0.821-0.783,0.812-1.357
	S31.656,22.796,31.138,22.549z"/>
<path style="fill:#FFFFFF;" d="M17.244,18.075v12.15c0,0.749,0.793,1.232,1.459,0.889l12.249-6.322
	c0.735-0.379,0.718-1.436-0.029-1.792l-12.249-5.828C18.01,16.857,17.244,17.34,17.244,18.075z"/>
</svg>