<?xml version="1.0" standalone="no"?>
<!DOCTYPE svg PUBLIC "-//W3C//DTD SVG 20010904//EN"
 "http://www.w3.org/TR/2001/REC-SVG-20010904/DTD/svg10.dtd">
<svg version="1.0" xmlns="http://www.w3.org/2000/svg"
 width="188.000000pt" height="188.000000pt" viewBox="0 0 188.000000 188.000000"
 preserveAspectRatio="xMidYMid meet">

<g transform="translate(0.000000,188.000000) scale(0.100000,-0.100000)"
fill="#000000" stroke="none">
<path d="M534 1703 c3 -7 28 -88 56 -181 48 -162 50 -172 50 -290 l0 -122 45
0 45 0 0 128 c0 125 1 133 50 298 27 93 50 172 50 177 0 12 -34 8 -56 -8 -12
-8 -24 -12 -26 -9 -3 2 -18 -41 -33 -96 -15 -56 -31 -98 -35 -93 -3 4 -14 35
-22 68 -42 157 -32 140 -83 140 -32 0 -44 -3 -41 -12z"/>
<path d="M940 1557 c-19 -5 -42 -15 -51 -23 -14 -12 -18 -13 -21 -2 -3 8 -10
4 -19 -12 -10 -19 -14 -65 -14 -182 l0 -157 29 -30 c54 -56 149 -50 187 13 18
28 19 47 17 189 l-3 159 -29 23 c-38 30 -53 34 -96 22z m44 -74 c11 -28 5
-302 -7 -310 -6 -4 -7 -1 -2 7 5 9 2 10 -12 6 -37 -12 -45 15 -46 151 -1 71 1
136 5 146 9 22 54 22 62 0z"/>
<path d="M1140 1363 c0 -105 4 -203 10 -217 13 -36 52 -43 95 -17 44 26 45 26
45 0 0 -18 5 -20 43 -17 l42 3 0 217 c0 119 -3 220 -7 223 -4 4 -23 4 -43 1
l-35 -7 0 -164 0 -165 -26 -16 c-22 -15 -27 -15 -35 -3 -5 8 -9 92 -9 187 l0
172 -40 -2 -40 -3 0 -192z"/>
<path d="M675 988 c-38 -32 -43 -33 -175 -44 -76 -6 -137 -7 -141 -3 -10 16
-47 -35 -59 -81 -7 -30 -10 -135 -8 -305 3 -250 4 -262 26 -300 37 -65 78 -86
184 -97 51 -5 284 -8 518 -6 l425 3 47 27 c75 44 89 78 100 231 11 141 4 412
-11 464 -9 32 -56 80 -115 118 -29 19 -51 20 -391 23 l-360 3 -40 -33z m-7
-145 l3 -53 -45 0 -46 0 0 -245 0 -245 -55 0 -55 0 0 244 0 245 -47 3 -48 3
-3 44 c-2 28 1 47 10 53 7 4 74 7 148 6 l135 -3 3 -52z m390 -29 l3 -82 28 11
c36 13 77 2 95 -26 19 -28 31 -199 21 -300 -8 -89 -26 -120 -71 -119 -16 0
-61 1 -101 1 l-72 1 -3 292 c-2 161 -1 297 0 301 2 4 25 7 50 5 l47 -3 3 -81z
m390 -80 c38 -27 52 -67 52 -154 l0 -80 -75 0 -75 0 0 -55 c0 -42 4 -57 16
-62 21 -8 34 13 34 55 0 32 0 32 50 32 l50 0 0 -42 c0 -53 -27 -108 -60 -126
-15 -8 -47 -11 -78 -9 -64 5 -99 33 -112 93 -13 53 -12 230 0 276 16 56 60 88
124 88 30 0 61 -6 74 -16z m-698 -169 c0 -137 3 -175 13 -175 32 0 37 24 37
187 l0 163 50 0 50 0 0 -220 0 -220 -49 0 c-27 0 -51 5 -53 10 -2 7 -16 5 -40
-5 -49 -20 -55 -19 -83 10 -25 24 -25 25 -25 225 l0 200 50 0 50 0 0 -175z"/>
<path d="M1060 520 c0 -133 1 -140 20 -140 19 0 20 7 20 140 0 133 -1 140 -20
140 -19 0 -20 -7 -20 -140z"/>
<path d="M1357 653 c-4 -3 -7 -19 -7 -34 0 -30 37 -49 47 -23 13 36 -18 80
-40 57z"/>
</g>
</svg>
